<?xml version="1.0" encoding="UTF-8"?>
<svg version="1.1" xmlns="http://www.w3.org/2000/svg" width="459" height="59">
<path d="M0 0 C3.87485635 -0.08751413 7.74945643 -0.14056435 11.625 -0.1875 C13.26662109 -0.22520508 13.26662109 -0.22520508 14.94140625 -0.26367188 C21.71122408 -0.32521567 26.41854553 0.03603768 31.8125 4.5 C34.41113006 7.78248007 34.45343016 11.62512365 34.4140625 15.640625 C33.68489055 19.79552931 31.25661306 22.44504596 28 25 C25.125 25.9375 25.125 25.9375 23 26 C22.57448002 29.9916941 22.57448002 29.9916941 24.93359375 32.33203125 C25.75988281 33.15058594 26.58617187 33.96914063 27.4375 34.8125 C31.35941538 38.96186188 33.12423666 41.28511363 33 47 C34.32 47.33 35.64 47.66 37 48 C37 48.33 37 48.66 37 49 C33.7 49 30.4 49 27 49 C26.9278125 48.27554688 26.855625 47.55109375 26.78125 46.8046875 C25.7871145 43.23574105 24.11769424 41.71784272 21.5 39.125 C17.60468339 35.00127339 15.87654974 32.67871195 16 27 C13.19848829 28.40075585 11.35854169 29.39047913 9.75 32.125 C8.89040473 35.42011519 8.52519581 38.62262234 8.24609375 42.01171875 C8 44 8 44 7 46 C8.32 46.66 9.64 47.32 11 48 C11 48.33 11 48.66 11 49 C7.04 49 3.08 49 -1 49 C-1 48.34 -1 47.68 -1 47 C-0.01 46.34 0.98 45.68 2 45 C2.32544573 41.97827642 2.46509244 39.15167552 2.4765625 36.125 C2.49214203 35.24473145 2.50772156 34.36446289 2.52377319 33.45751953 C2.57140687 30.63835564 2.59908955 27.8194403 2.625 25 C2.66146428 22.1807354 2.70207851 19.36161245 2.74765015 16.54248047 C2.77491343 14.78637949 2.79624875 13.03017484 2.81118774 11.27392578 C2.88939474 5.22121051 2.88939474 5.22121051 4 3 C2.68 2.01 1.36 1.02 0 0 Z M9 2 C7.61691219 4.76617563 7.88789804 7.01018 7.90234375 10.1015625 C7.90556641 11.31328125 7.90878906 12.525 7.91210938 13.7734375 C7.92048828 15.04445313 7.92886719 16.31546875 7.9375 17.625 C7.94201172 18.90375 7.94652344 20.1825 7.95117188 21.5 C7.96298797 24.66671292 7.97946185 27.83333356 8 31 C8.76747559 30.36320312 9.53495117 29.72640625 10.32568359 29.0703125 C13.81788302 26.36683878 17.29979393 25.40663857 21.4765625 24.125 C24.39046774 22.8259215 25.42073326 21.74346978 27 19 C28.04536779 14.37051406 28.42750376 12.13288496 26.75 7.6875 C24.72632206 4.48984145 24.72632206 4.48984145 22 2 C18.79861932 1.6363838 18.79861932 1.6363838 15.3125 1.8125 C14.13300781 1.83957031 12.95351563 1.86664063 11.73828125 1.89453125 C10.38283203 1.94673828 10.38283203 1.94673828 9 2 Z " fill="#AE9EEF" transform="translate(331,3)"/>
<path d="M0 0 C6.53662704 5.21757674 10.84396595 11.2041241 12.0546875 19.54296875 C12.40046363 25.69130056 10.92007008 31.12514402 7.7421875 36.390625 C2.82417151 41.88669138 -2.02416826 45.95562691 -9.52734375 46.7265625 C-18.63717396 46.82700164 -24.04941805 45.92950215 -31.0078125 40.078125 C-36.19536109 33.88188641 -38.6641184 27.96902361 -38.53125 19.890625 C-37.73277574 12.59028888 -34.53913337 6.65434359 -29.0859375 1.796875 C-21.20824672 -4.26288714 -8.64685099 -5.26975468 0 0 Z M-29.8515625 4.8203125 C-33.74400494 9.36903884 -34.60894009 13.12743347 -34.54296875 18.9140625 C-33.72653614 26.0047238 -29.79561491 32.43012089 -24.390625 36.953125 C-18.76296056 41.11879832 -13.30083453 43.23457577 -6.2578125 43.390625 C-1.58596338 42.68469194 1.57104605 40.93323634 4.6796875 37.390625 C8.05320221 32.48369452 8.40907587 28.18250482 7.7421875 22.390625 C4.78210335 12.91222083 -0.69076859 7.18064448 -9.2578125 2.390625 C-16.26480483 -0.49702223 -23.99823172 -0.43046952 -29.8515625 4.8203125 Z " fill="#B0A0EC" transform="translate(313.2578125,5.609375)"/>
<path d="M0 0 C1.95301212 1.33845425 3.53823962 2.54103594 5.0234375 4.38671875 C4.7109375 7.07421875 4.7109375 7.07421875 4.0234375 9.38671875 C3.0334375 9.38671875 2.0434375 9.38671875 1.0234375 9.38671875 C0.5284375 8.39671875 0.5284375 8.39671875 0.0234375 7.38671875 C-0.07453125 8.0621875 -0.1725 8.73765625 -0.2734375 9.43359375 C-0.42296875 10.325625 -0.5725 11.21765625 -0.7265625 12.13671875 C-0.86578125 13.0184375 -1.005 13.90015625 -1.1484375 14.80859375 C-1.9765625 17.38671875 -1.9765625 17.38671875 -5.9765625 21.38671875 C0.9534375 21.88171875 0.9534375 21.88171875 8.0234375 22.38671875 C7.3634375 23.70671875 6.7034375 25.02671875 6.0234375 26.38671875 C5.88324746 28.19570948 5.80363162 30.0100553 5.7734375 31.82421875 C5.44620416 36.06132628 5.30611863 37.0636546 2.3984375 40.38671875 C-5.6068776 45.13060918 -11.55809377 46.55004505 -20.9765625 45.38671875 C-28.39140961 43.19273659 -33.21524161 39.09610196 -36.9765625 32.38671875 C-40.0921557 25.86445618 -40.22683354 18.3629026 -38.06640625 11.4921875 C-34.83737326 4.56689809 -30.46983941 -0.29934451 -23.1484375 -3.1015625 C-14.78406176 -5.07230571 -7.46294838 -4.12817576 0 0 Z M-27.1640625 3.44921875 C-31.91165458 9.34321102 -33.77730336 16.91313738 -32.9765625 24.38671875 C-31.59150388 31.96086814 -28.74877779 37.24443341 -22.9765625 42.38671875 C-19.00546803 44.83046919 -14.5500802 45.13103634 -9.9765625 44.38671875 C-6.64549086 42.6942689 -6.64549086 42.6942689 -3.9765625 40.38671875 C-3.18378906 39.74669922 -3.18378906 39.74669922 -2.375 39.09375 C-0.47594261 36.77562687 -0.32213142 34.83432337 0.0859375 31.88671875 C0.60508726 28.20817185 0.92038011 26.54130483 3.0234375 23.38671875 C-1.9265625 23.05671875 -6.8765625 22.72671875 -11.9765625 22.38671875 C-9.9965625 21.39671875 -8.0165625 20.40671875 -5.9765625 19.38671875 C-3.14999018 16.11384554 -2.06776625 14.12937785 -1.5390625 9.82421875 C-2.1625273 4.92556678 -4.18953145 1.54257796 -7.9765625 -1.61328125 C-15.67059429 -4.17795851 -21.66758521 -2.29094472 -27.1640625 3.44921875 Z " fill="#B4A8E8" transform="translate(412.9765625,6.61328125)"/>
<path d="M0 0 C2.81500418 1.57545612 5.29740645 3.1393817 7.3125 5.6875 C7 8.875 7 8.875 6.3125 11.6875 C2.28378826 10.34459609 1.63711631 8.17442446 -0.6875 4.6875 C-5.10414156 0.7966491 -7.61435327 -0.64531184 -13.6015625 -0.515625 C-17.74405403 -0.11223631 -20.45202407 1.40177744 -23.3203125 4.38671875 C-28.61769785 10.89968769 -29.96953222 16.37986808 -29.5625 24.6875 C-28.79544091 31.6791995 -26.9704766 36.97070229 -21.5625 41.625 C-16.87967716 44.98441639 -13.37828625 45.404826 -7.6875 44.6875 C-4.49779602 42.94766146 -2.24054507 41.24054507 0.3125 38.6875 C0.92121929 36.12971162 0.92121929 36.12971162 1.3125 33.25 C1.86074376 29.57382977 2.21203191 27.83820214 4.3125 24.6875 C2.6625 24.6875 1.0125 24.6875 -0.6875 24.6875 C-0.6875 24.3575 -0.6875 24.0275 -0.6875 23.6875 C2.9425 23.6875 6.5725 23.6875 10.3125 23.6875 C9.6525 24.6775 8.9925 25.6675 8.3125 26.6875 C8.21753453 28.62311978 8.18262467 30.56205816 8.1875 32.5 C7.82469625 38.05627223 7.82469625 38.05627223 5.6484375 40.73828125 C-1.96965524 46.48751604 -9.27120715 47.72767188 -18.6875 46.6875 C-26.10169148 44.50983447 -30.93075828 40.38871497 -34.6875 33.6875 C-37.26719336 28.88786644 -36.91531569 24.17791703 -36.8125 18.875 C-36.80347656 17.99134766 -36.79445312 17.10769531 -36.78515625 16.19726562 C-36.76169637 14.02722641 -36.72582865 11.85732753 -36.6875 9.6875 C-36.0275 9.6875 -35.3675 9.6875 -34.6875 9.6875 C-34.3575 8.6975 -34.0275 7.7075 -33.6875 6.6875 C-31.796875 4.93359375 -31.796875 4.93359375 -29.4375 3.125 C-28.66921875 2.52558594 -27.9009375 1.92617187 -27.109375 1.30859375 C-19.09868123 -4.05340289 -8.60311659 -4.20034516 0 0 Z " fill="#C5BBEA" transform="translate(40.6875,5.3125)"/>
<path d="M0 0 C3.96 0 7.92 0 12 0 C12.09861328 1.28197266 12.09861328 1.28197266 12.19921875 2.58984375 C13.17059534 6.72648649 15.17070765 9.35379942 17.8125 12.5625 C18.47088867 13.38911133 18.47088867 13.38911133 19.14257812 14.23242188 C20.41814832 15.83020148 21.70793794 17.41554777 23 19 C24.33415352 20.66601019 25.66780308 22.33242484 27 24 C27.391875 23.360625 27.78375 22.72125 28.1875 22.0625 C30.41785583 19.52450888 31.67842984 19.24911776 35 19 C35.99 19.33 36.98 19.66 38 20 C38.33 14.06 38.66 8.12 39 2 C38.01 2 37.02 2 36 2 C35.01 1.67 34.02 1.34 33 1 C33 0.67 33 0.34 33 0 C37.29 0 41.58 0 46 0 C46 0.66 46 1.32 46 2 C45.0409375 2.433125 45.0409375 2.433125 44.0625 2.875 C41.84793921 3.82823451 41.84793921 3.82823451 41 6 C40.84876169 7.5195764 40.75118307 9.04472502 40.68359375 10.5703125 C40.62075195 11.91416016 40.62075195 11.91416016 40.55664062 13.28515625 C40.51732422 14.22230469 40.47800781 15.15945312 40.4375 16.125 C40.37272461 17.54232422 40.37272461 17.54232422 40.30664062 18.98828125 C40.20040928 21.32537092 40.09836824 23.6625683 40 26 C39.34 24.68 38.68 23.36 38 22 C35.66705225 21.95758277 33.33297433 21.95907063 31 22 C30.67 22.33 30.34 22.66 30 23 C30.34500564 30.2185796 33.53712033 33.62389156 38.06640625 38.9375 C40.36745139 42.58198362 40.37553272 44.76864536 40 49 C37.48469602 48.62329724 36.25759602 48.26682665 34.46704102 46.41210938 C33.98420654 45.72955078 33.50137207 45.04699219 33.00390625 44.34375 C32.45105957 43.57587158 31.89821289 42.80799316 31.32861328 42.0168457 C30.45438721 40.77100708 30.45438721 40.77100708 29.5625 39.5 C28.32308463 37.77368321 27.08216288 36.04844707 25.83984375 34.32421875 C25.20804199 33.4429834 24.57624023 32.56174805 23.92529297 31.65380859 C20.89942838 27.48298079 17.76785068 23.39549549 14.625 19.3125 C12.76875 16.899375 10.9125 14.48625 9 12 C8.67 23.55 8.34 35.1 8 47 C9.65 47 11.3 47 13 47 C13 47.66 13 48.32 13 49 C9.04 49 5.08 49 1 49 C1 48.34 1 47.68 1 47 C1.639375 46.71125 2.27875 46.4225 2.9375 46.125 C5.15206079 45.17176549 5.15206079 45.17176549 6 43 C6.08711775 39.93757679 6.1154846 36.89813535 6.09765625 33.8359375 C6.09553383 32.47512558 6.09553383 32.47512558 6.09336853 31.08682251 C6.08776096 28.18284845 6.07520718 25.27895085 6.0625 22.375 C6.05748598 20.40885528 6.0529229 18.44270935 6.04882812 16.4765625 C6.03778906 11.6510121 6.02051935 6.82551903 6 2 C4.35 2 2.7 2 1 2 C0.67 1.34 0.34 0.68 0 0 Z " fill="#AFA0F0" transform="translate(90,3)"/>
<path d="M0 0 C2.23375255 1.45655884 3.71913429 2.77420609 4.91796875 5.171875 C3.66967542 7.41467153 2.38532998 9.53091293 0.98046875 11.671875 C-1.93109612 15.61864915 -1.93109612 15.61864915 -3.08203125 20.171875 C-1.42088161 21.35839667 -1.42088161 21.35839667 0.66796875 22.484375 C4.23363513 24.65917861 6.83605906 26.4417868 8.91796875 30.171875 C9.52168049 34.92610493 9.42703769 37.1130116 7.35546875 41.421875 C3.61545912 45.64137305 0.60935198 47.7757567 -4.921875 48.58984375 C-12.01650961 48.92086705 -16.59018983 47.69456793 -22.08203125 43.171875 C-21.20703125 38.421875 -21.20703125 38.421875 -20.08203125 36.171875 C-19.42203125 36.501875 -18.76203125 36.831875 -18.08203125 37.171875 C-18.41203125 38.491875 -18.74203125 39.811875 -19.08203125 41.171875 C-14.45824683 44.94390966 -12.22698336 46.46496885 -6.1171875 46.3984375 C-2.19797732 45.96213387 0.21728724 43.87255651 2.91796875 41.171875 C3.48267933 36.89620917 3.47773971 34.91823628 0.85546875 31.421875 C-2.41477085 28.91701062 -5.23964569 27.60335197 -9.08203125 26.171875 C-9.41203125 27.161875 -9.74203125 28.151875 -10.08203125 29.171875 C-10.16839844 28.55183594 -10.25476563 27.93179687 -10.34375 27.29296875 C-10.8774901 25.05451773 -10.8774901 25.05451773 -12.7890625 24.08203125 C-13.48386719 23.80230469 -14.17867187 23.52257812 -14.89453125 23.234375 C-18.72611118 21.44584577 -21.02841114 20.0224127 -23.08203125 16.171875 C-23.82954264 12.32753073 -23.97926082 8.84575783 -22.09375 5.328125 C-16.74879186 -1.42340107 -8.04050973 -3.19810143 0 0 Z M-17.08203125 3.171875 C-18.79583565 5.508881 -19.09381631 6.71225783 -19.01953125 9.609375 C-17.4266834 13.96315913 -14.55033712 16.43772207 -10.45703125 18.484375 C-8.01383329 19.31090404 -8.01383329 19.31090404 -5.08203125 19.171875 C-3.10495 16.63158421 -3.10495 16.63158421 -1.33203125 13.421875 C-0.6978125 12.35453125 -0.06359375 11.2871875 0.58984375 10.1875 C2.11195669 7.37068225 2.11195669 7.37068225 1.75 4.890625 C0.3896499 2.08051212 -1.23908277 1.38164031 -4.08203125 0.171875 C-9.1447891 -0.58498173 -13.01741571 -0.17545545 -17.08203125 3.171875 Z " fill="#AE9EEF" transform="translate(228.08203125,3.828125)"/>
<path d="M0 0 C8.91 0 17.82 0 27 0 C26.31495008 5.48039934 25.57457608 10.10632302 24.15234375 15.34375 C23.97619034 15.99831177 23.80003693 16.65287354 23.61854553 17.32727051 C23.0632192 19.38624566 22.50051083 21.44311446 21.9375 23.5 C21.55614707 24.90872065 21.17528343 26.31757385 20.79492188 27.7265625 C19.86892205 31.15258949 18.93629766 34.57677103 18 38 C17.34 37.67 16.68 37.34 16 37 C16.99 33.04 17.98 29.08 19 25 C14.49774076 24.90785142 14.49774076 24.90785142 10 25 C7.72051516 27.27948484 8.59218011 33.4976269 8.48242188 36.7421875 C8.30676167 40.61334063 8.19202312 42.71196532 6 46 C18.16261741 46.4075911 18.16261741 46.4075911 30 44 C29.125 47.875 29.125 47.875 28 49 C25.85441173 49.08775605 23.70595579 49.10695219 21.55859375 49.09765625 C20.25341797 49.09443359 18.94824219 49.09121094 17.60351562 49.08789062 C16.2148431 49.07953401 14.82617123 49.07106905 13.4375 49.0625 C12.04492344 49.05748666 10.65234519 49.05292347 9.25976562 49.04882812 C5.8398013 49.03699434 2.41992156 49.0205088 -1 49 C-1 48.34 -1 47.68 -1 47 C-0.01 46.505 -0.01 46.505 1 46 C1.29922513 42.68200999 1.4156556 39.40671285 1.47851562 36.078125 C1.6517972 31.47982368 2.48754035 28.80675705 5 25 C4.33903214 22.34754398 4.33903214 22.34754398 3 20 C1.12947142 14.38841426 1.24394042 8.82714398 3.5 3.375 C3.995 2.59125 4.49 1.8075 5 1 C3.35 1 1.7 1 0 1 C0 0.67 0 0.34 0 0 Z M8 3 C7.87332236 5.99018161 7.81479162 8.94694108 7.8125 11.9375 C7.80025391 12.77474609 7.78800781 13.61199219 7.77539062 14.47460938 C7.77345703 15.27576172 7.77152344 16.07691406 7.76953125 16.90234375 C7.76542236 17.63960693 7.76131348 18.37687012 7.75708008 19.13647461 C7.83945778 21.24597306 7.83945778 21.24597306 10 23 C12.44012949 23.24287489 12.44012949 23.24287489 15.125 23.125 C16.03507812 23.10695313 16.94515625 23.08890625 17.8828125 23.0703125 C18.93082031 23.03550781 18.93082031 23.03550781 20 23 C22.26616615 16.74538144 23.83795007 10.54849313 25 4 C21.3924497 1.59496647 19.65163611 1.7603459 15.375 1.8125 C13.62316406 1.82216797 13.62316406 1.82216797 11.8359375 1.83203125 C9.09951423 1.67913175 9.09951423 1.67913175 8 3 Z " fill="#D9D5EE" transform="translate(57,3)"/>
<path d="M0 0 C3.96 0 7.92 0 12 0 C12 0.66 12 1.32 12 2 C11.01 2.495 11.01 2.495 10 3 C9.92550749 7.44739413 9.87123743 11.8944519 9.83520508 16.34228516 C9.82017457 17.85341727 9.79974436 19.36450618 9.77368164 20.87548828 C9.73704311 23.05512187 9.72021662 25.23417575 9.70703125 27.4140625 C9.6913208 28.7232666 9.67561035 30.0324707 9.65942383 31.38134766 C10.09613827 36.02147769 11.51254305 39.34091341 14.625 42.8125 C18.30702907 44.65351454 21.89957271 45.12101956 26 45 C30.22858897 43.51216314 32.70568086 41.86411644 35 38 C36.18001549 34.45995354 36.22912346 31.1772744 36.31640625 27.48828125 C36.33718735 26.76005661 36.35796844 26.03183197 36.37937927 25.28153992 C36.44468746 22.95862125 36.50367237 20.63559094 36.5625 18.3125 C36.60570305 16.73631665 36.64931792 15.16014452 36.69335938 13.58398438 C36.8003496 9.72277025 36.90166961 5.86144397 37 2 C35.68 2 34.36 2 33 2 C32.34 1.34 31.68 0.68 31 0 C35.29 0 39.58 0 44 0 C42.78002319 1.02130005 42.78002319 1.02130005 41.53540039 2.06323242 C38.4193505 5.67256937 38.39608455 7.28785181 38.43359375 11.98828125 C38.42514183 12.98132515 38.42514183 12.98132515 38.41651917 13.99443054 C38.40013537 16.10118253 38.41552778 18.20582327 38.4375 20.3125 C38.57207356 37.20050599 38.57207356 37.20050599 34 44 C28.88492148 48.86556249 24.5537288 49.35330453 17.7265625 49.28125 C12.5976955 48.75219782 9.9720213 46.10337553 6.6875 42.375 C3.86004532 38.39561934 3.83956349 35.44363822 3.83203125 30.69140625 C3.82870285 29.96888168 3.82537445 29.24635712 3.82194519 28.50193787 C3.81688012 26.9728967 3.81453674 25.44384447 3.81469727 23.91479492 C3.81251184 21.5751728 3.7943552 19.23602297 3.77539062 16.89648438 C3.77245641 15.41145995 3.7704718 13.92643328 3.76953125 12.44140625 C3.76234573 11.7413295 3.75516022 11.04125275 3.74775696 10.31996155 C3.76502738 6.64876732 3.9050177 5.14247344 6 2 C3.03 1.505 3.03 1.505 0 1 C0 0.67 0 0.34 0 0 Z " fill="#A99BE9" transform="translate(157,3)"/>
<path d="M0 0 C9.24 0 18.48 0 28 0 C26.47441336 8.3907265 24.71686402 16.36752359 22.5 24.5625 C22.19191406 25.73619141 21.88382812 26.90988281 21.56640625 28.11914062 C21.26605469 29.23611328 20.96570313 30.35308594 20.65625 31.50390625 C20.25116211 33.01706421 20.25116211 33.01706421 19.83789062 34.56079102 C19 37 19 37 17 39 C17.64187918 33.86496656 18.68272247 29.0056546 20 24 C18.52031676 24.14049518 17.04125484 24.28754826 15.5625 24.4375 C14.32693359 24.55931641 14.32693359 24.55931641 13.06640625 24.68359375 C11.01337975 24.78930815 11.01337975 24.78930815 10 26 C9.8136108 28.39939114 9.66956017 30.78434082 9.5625 33.1875 C9.33133932 38.1992603 8.72310902 42.29109883 7 47 C7 47.66 7 48.32 7 49 C4.69 49 2.38 49 0 49 C0.3196875 48.505 0.639375 48.01 0.96875 47.5 C2.38894888 44.05709361 2.38691469 40.67194652 2.5 37 C2.7628866 28.46391753 2.7628866 28.46391753 5 25 C5.66 25 6.32 25 7 25 C6.34 24.0925 5.68 23.185 5 22.25 C2.08804893 17.210879 2.28906312 11.65442817 3 6 C3.66 5.01 4.32 4.02 5 3 C2.525 2.01 2.525 2.01 0 1 C0 0.67 0 0.34 0 0 Z M9 3 C8.90139869 4.40348735 8.86921063 5.81180477 8.8671875 7.21875 C8.86589844 8.06824219 8.86460937 8.91773438 8.86328125 9.79296875 C8.86714844 10.68628906 8.87101562 11.57960938 8.875 12.5 C8.87113281 13.39332031 8.86726563 14.28664063 8.86328125 15.20703125 C8.86457031 16.05652344 8.86585938 16.90601563 8.8671875 17.78125 C8.86831543 18.56564453 8.86944336 19.35003906 8.87060547 20.15820312 C8.79892558 22.01752988 8.79892558 22.01752988 10 23 C11.85287502 23.07226502 13.70833878 23.0838122 15.5625 23.0625 C16.57441406 23.05347656 17.58632813 23.04445313 18.62890625 23.03515625 C19.41136719 23.02355469 20.19382812 23.01195313 21 23 C21.86478781 20.23208055 22.71711674 17.46134374 23.5625 14.6875 C23.80935547 13.90181641 24.05621094 13.11613281 24.31054688 12.30664062 C24.53935547 11.54931641 24.76816406 10.79199219 25.00390625 10.01171875 C25.21861572 9.31522217 25.4333252 8.61872559 25.65454102 7.90112305 C26.19606696 5.78696184 26.19606696 5.78696184 25 3 C22.13366205 1.56683102 19.62764499 1.86799639 16.4375 1.875 C15.26058594 1.87242188 14.08367187 1.86984375 12.87109375 1.8671875 C10.10327299 1.67216812 10.10327299 1.67216812 9 3 Z " fill="#E2DEF1" transform="translate(426,3)"/>
<path d="M0 0 C9.24 0 18.48 0 28 0 C28.66 1.65 29.32 3.3 30 5 C28.741875 4.67 27.48375 4.34 26.1875 4 C20.73230145 2.76649969 15.57728444 2.85880293 10 3 C10 9.27 10 15.54 10 22 C11.98 22.33 13.96 22.66 16 23 C16 23.33 16 23.66 16 24 C13.69 24.33 11.38 24.66 9 25 C9.02320313 26.08539062 9.04640625 27.17078125 9.0703125 28.2890625 C9.0890827 29.73436807 9.10728156 31.17968115 9.125 32.625 C9.14175781 33.33785156 9.15851563 34.05070312 9.17578125 34.78515625 C9.21684602 39.2612164 8.69086567 42.77949278 7 47 C7.66 47.66 8.32 48.32 9 49 C6.03 49 3.06 49 0 49 C0 48.34 0 47.68 0 47 C0.99 46.505 0.99 46.505 2 46 C2.04898438 44.81921875 2.09796875 43.6384375 2.1484375 42.421875 C2.22348879 40.86456063 2.29903561 39.30727009 2.375 37.75 C2.4059375 36.97269531 2.436875 36.19539063 2.46875 35.39453125 C2.83381886 28.27568856 2.83381886 28.27568856 5 25 C5.66 25 6.32 25 7 25 C6.34 24.0925 5.68 23.185 5 22.25 C2.1091461 17.20900922 2.14637302 11.6447045 3 6 C4.52734375 3.1328125 4.52734375 3.1328125 6 1 C4.02 1 2.04 1 0 1 C0 0.67 0 0.34 0 0 Z " fill="#9F8DE4" transform="translate(242,3)"/>
<path d="M0 0 C3.96 0 7.92 0 12 0 C12 0.66 12 1.32 12 2 C11.01 2.495 11.01 2.495 10 3 C9.98018066 4.16047852 9.96036133 5.32095703 9.93994141 6.51660156 C9.86382088 10.82557734 9.77511334 15.13421828 9.68261719 19.44287109 C9.6443541 21.30706162 9.60949654 23.1713253 9.578125 25.03564453 C9.53241644 27.71673716 9.47443178 30.39732733 9.4140625 33.078125 C9.39673569 34.32677338 9.39673569 34.32677338 9.37905884 35.60064697 C9.19713905 42.74669236 9.19713905 42.74669236 7 46 C7.99 46.33 8.98 46.66 10 47 C10 47.66 10 48.32 10 49 C6.7 49 3.4 49 0 49 C0 48.34 0 47.68 0 47 C0.99 46.505 0.99 46.505 2 46 C2.01458252 44.84999512 2.02916504 43.69999023 2.04418945 42.51513672 C2.10233762 38.23211195 2.17956924 33.94960384 2.26245117 29.66699219 C2.29562296 27.81649181 2.32367887 25.96589214 2.34643555 24.11523438 C2.3801245 21.44878997 2.4324466 18.7832491 2.48828125 16.1171875 C2.49467117 15.29507782 2.5010611 14.47296814 2.50764465 13.62594604 C2.63292404 8.6869869 3.38095163 5.33560744 6 1 C4.02 1 2.04 1 0 1 C0 0.67 0 0.34 0 0 Z " fill="#9882F3" transform="translate(140,3)"/>
<path d="M0 0 C0.02467203 5.94482112 0.04284663 11.8896126 0.05493164 17.83447266 C0.05996831 19.85791543 0.06679789 21.88135456 0.07543945 23.90478516 C0.08753412 26.80892843 0.09323488 29.71302369 0.09765625 32.6171875 C0.10281754 33.52556366 0.10797882 34.43393982 0.11329651 35.36984253 C0.11337204 36.21056305 0.11344757 37.05128357 0.11352539 37.91748047 C0.115746 38.65916473 0.11796661 39.400849 0.12025452 40.16500854 C0 42 0 42 -1 44 C0.32 44.66 1.64 45.32 3 46 C3 46.33 3 46.66 3 47 C-0.96 47 -4.92 47 -9 47 C-9 46.34 -9 45.68 -9 45 C-8.01 44.34 -7.02 43.68 -6 43 C-5.7115926 39.98899619 -5.60721467 37.17251948 -5.62890625 34.16015625 C-5.61152462 32.35741997 -5.59394023 30.55468564 -5.57617188 28.75195312 C-5.56608881 25.90336547 -5.56250455 23.05490361 -5.56420898 20.20629883 C-5.5606463 17.46136634 -5.53332982 14.71741482 -5.50390625 11.97265625 C-5.51208878 11.11946304 -5.5202713 10.26626984 -5.52870178 9.38722229 C-5.45399174 3.47515738 -5.45399174 3.47515738 -3.03100586 0.93920898 C-1 0 -1 0 0 0 Z " fill="#9C88ED" transform="translate(339,5)"/>
<path d="M0 0 C-1.0572129 2.76501836 -2.19330281 5.3711414 -3.5625 8 C-7.09859753 15.3796818 -6.28633729 22.62227434 -4.5 30.4375 C-4.2215625 31.67371094 -3.943125 32.90992188 -3.65625 34.18359375 C-3.4396875 35.11300781 -3.223125 36.04242188 -3 37 C-6.02983954 36.69446996 -7.54898362 36.52117448 -9.58203125 34.171875 C-13.5789713 26.30488188 -14.81719567 18.59251238 -12.04296875 10.0546875 C-10.26909117 6.19157632 -8.69659574 3.56391084 -5.375 0.875 C-3 0 -3 0 0 0 Z " fill="#B2A4ED" transform="translate(387,8)"/>
<path d="M0 0 C3.96 0 7.92 0 12 0 C12.08121094 0.86882813 12.16242188 1.73765625 12.24609375 2.6328125 C13.12558252 6.56089187 14.62167906 8.69805845 17.0625 11.875 C17.79597656 12.84179688 18.52945313 13.80859375 19.28515625 14.8046875 C20.13400391 15.89136719 20.13400391 15.89136719 21 17 C20.34 17.66 19.68 18.32 19 19 C19 18.34 19 17.68 19 17 C17.35 17.33 15.7 17.66 14 18 C12.35 16.02 10.7 14.04 9 12 C8.67 23.55 8.34 35.1 8 47 C9.65 47 11.3 47 13 47 C13 47.66 13 48.32 13 49 C9.04 49 5.08 49 1 49 C1 48.34 1 47.68 1 47 C1.639375 46.71125 2.27875 46.4225 2.9375 46.125 C5.15206079 45.17176549 5.15206079 45.17176549 6 43 C6.08711775 39.93757679 6.1154846 36.89813535 6.09765625 33.8359375 C6.09553383 32.47512558 6.09553383 32.47512558 6.09336853 31.08682251 C6.08776096 28.18284845 6.07520718 25.27895085 6.0625 22.375 C6.05748598 20.40885528 6.0529229 18.44270935 6.04882812 16.4765625 C6.03778906 11.6510121 6.02051935 6.82551903 6 2 C4.35 2 2.7 2 1 2 C0.67 1.34 0.34 0.68 0 0 Z " fill="#AA9AF0" transform="translate(90,3)"/>
<path d="M0 0 C2.81500418 1.57545612 5.29740645 3.1393817 7.3125 5.6875 C7 8.875 7 8.875 6.3125 11.6875 C2.28378826 10.34459609 1.63711631 8.17442446 -0.6875 4.6875 C-5.10414156 0.7966491 -7.61435327 -0.64531184 -13.6015625 -0.515625 C-16.95796981 -0.18878384 -18.91623338 0.75966235 -21.6875 2.6875 C-23.29709336 4.70052085 -24.76899508 6.77737086 -26.23828125 8.89453125 C-28.08454531 11.17872317 -29.9436603 11.77288677 -32.6875 12.6875 C-34.03160262 14.70485205 -34.03160262 14.70485205 -34.6875 16.6875 C-36.6875 13.6875 -36.6875 13.6875 -36.6875 9.6875 C-36.0275 9.6875 -35.3675 9.6875 -34.6875 9.6875 C-34.3575 8.6975 -34.0275 7.7075 -33.6875 6.6875 C-31.796875 4.93359375 -31.796875 4.93359375 -29.4375 3.125 C-28.66921875 2.52558594 -27.9009375 1.92617187 -27.109375 1.30859375 C-19.09868123 -4.05340289 -8.60311659 -4.20034516 0 0 Z " fill="#BAAFEA" transform="translate(40.6875,5.3125)"/>
<path d="M0 0 C0.99 0 1.98 0 3 0 C3.02888514 3.14581423 3.04675923 6.29159469 3.0625 9.4375 C3.07087891 10.33533203 3.07925781 11.23316406 3.08789062 12.15820312 C3.09111328 13.01220703 3.09433594 13.86621094 3.09765625 14.74609375 C3.10289307 15.53685303 3.10812988 16.3276123 3.11352539 17.14233398 C3 19 3 19 2 20 C14.16261741 20.4075911 14.16261741 20.4075911 26 18 C25.125 21.875 25.125 21.875 24 23 C21.85441173 23.08775605 19.70595579 23.10695219 17.55859375 23.09765625 C16.25341797 23.09443359 14.94824219 23.09121094 13.60351562 23.08789062 C12.2148431 23.07953401 10.82617123 23.07106905 9.4375 23.0625 C8.04492344 23.05748666 6.65234519 23.05292347 5.25976562 23.04882812 C1.8398013 23.03699434 -1.58007844 23.0205088 -5 23 C-5 22.34 -5 21.68 -5 21 C-4.34 20.67 -3.68 20.34 -3 20 C-2.73874918 17.37264802 -2.57834501 14.82127489 -2.5 12.1875 C-2.23545928 3.43431446 -2.23545928 3.43431446 0 0 Z " fill="#CDC4F1" transform="translate(61,29)"/>
<path d="M0 0 C1.8125 1.1171875 1.8125 1.1171875 3.5 2.375 C4.3971875 3.02855469 4.3971875 3.02855469 5.3125 3.6953125 C7.78859067 5.79311154 9.31312686 7.27364127 9.8671875 10.5390625 C9.875 12.75 9.875 12.75 9.5 16.375 C3.71538462 11.94423077 3.71538462 11.94423077 2.625 9.0625 C2.58375 8.505625 2.5425 7.94875 2.5 7.375 C1.46875 7.271875 0.4375 7.16875 -0.625 7.0625 C-4.5 6.375 -4.5 6.375 -7.25 4.9375 C-11.82379086 2.73856208 -16.51109069 2.12955034 -21.5 1.375 C-21.5 0.715 -21.5 0.055 -21.5 -0.625 C-14.98247305 -2.79750898 -6.30125978 -2.94874487 0 0 Z " fill="#AEA0EA" transform="translate(311.5,4.625)"/>
<path d="M0 0 C-0.03350601 12.38046952 -0.03350601 12.38046952 -2.15625 15.9375 C-3.625 17.1875 -3.625 17.1875 -7 19 C-8.5159375 19.8971875 -8.5159375 19.8971875 -10.0625 20.8125 C-16.3426423 23.21618278 -23.73337372 23.13805045 -30.02734375 20.9453125 C-36.62772254 17.74455492 -36.62772254 17.74455492 -38 15 C-37.01 15 -36.02 15 -35 15 C-35.33 13.68 -35.66 12.36 -36 11 C-35.2575 11.763125 -34.515 12.52625 -33.75 13.3125 C-28.7385377 18.21006543 -25.29286042 20.35951069 -18.06640625 20.29296875 C-13.823622 19.69143979 -10.92943055 16.92943055 -8 14 C-7.45177845 11.21973357 -7.10970474 8.4403006 -6.7578125 5.62890625 C-5.73149046 2.06852104 -3.84880788 0 0 0 Z " fill="#C4BCE7" transform="translate(419,30)"/>
<path d="M0 0 C9.24 0 18.48 0 28 0 C28.66 1.65 29.32 3.3 30 5 C28.783125 4.67 27.56625 4.34 26.3125 4 C20.20052714 2.61357804 14.24324772 2.86856321 8 3 C8 9.27 8 15.54 8 22 C4 20 4 20 3 18 C2.85148156 16.06640414 2.77869167 14.12657903 2.75 12.1875 C2.72421875 11.14980469 2.6984375 10.11210937 2.671875 9.04296875 C3.03898251 5.63848364 4.0500752 3.77607715 6 1 C4.02 1 2.04 1 0 1 C0 0.67 0 0.34 0 0 Z " fill="#9A8BDF" transform="translate(242,3)"/>
<path d="M0 0 C0.99 0 1.98 0 3 0 C2.91621094 0.81082031 2.83242187 1.62164063 2.74609375 2.45703125 C2.07050805 9.80295675 2.04705817 16.68433886 3 24 C1.35 24.33 -0.3 24.66 -2 25 C-5.65111665 18.45841601 -5.29887594 12.36120371 -5 5 C-4.34 5 -3.68 5 -3 5 C-2.525625 4.175 -2.05125 3.35 -1.5625 2.5 C-1.046875 1.675 -0.53125 0.85 0 0 Z " fill="#AD9BF2" transform="translate(9,16)"/>
<path d="M0 0 C2.375 0.25 2.375 0.25 5 1 C6.0625 2.8125 6.0625 2.8125 7 5 C8.29470975 6.37086915 9.62150897 7.71340837 11 9 C11.33 7.35 11.66 5.7 12 4 C15.76240894 8.58032392 16.38028207 12.68506015 16.265625 18.50390625 C15.371559 26.90549705 11.4802733 32.17853783 5.31640625 37.69921875 C3 39 3 39 0.21484375 38.70703125 C-0.51605469 38.47371094 -1.24695313 38.24039063 -2 38 C-1.443125 37.731875 -0.88625 37.46375 -0.3125 37.1875 C5.26324196 34.32428116 8.94980405 32.15058786 11 26 C11.82909563 19.23131765 10.52317301 13.82286473 7 8 C4.50041345 5.16540517 4.50041345 5.16540517 2 3 C1.34 2.01 0.68 1.02 0 0 Z " fill="#B6A8EE" transform="translate(309,11)"/>
<path d="M0 0 C0.05429278 2.70860665 0.09381211 5.41610901 0.125 8.125 C0.15013672 9.26582031 0.15013672 9.26582031 0.17578125 10.4296875 C0.21565575 15.05512942 -0.3116612 18.62627193 -2 23 C-2 23.66 -2 24.32 -2 25 C-4.31 25 -6.62 25 -9 25 C-8.6803125 24.505 -8.360625 24.01 -8.03125 23.5 C-6.61105112 20.05709361 -6.61308531 16.67194652 -6.5 13 C-6.22294881 4.00398488 -6.22294881 4.00398488 -4 1 C-1 0 -1 0 0 0 Z " fill="#B7A9F0" transform="translate(435,27)"/>
<path d="M0 0 C4.53599049 4.36538907 10.15459421 9.84648461 11.44921875 16.20703125 C11.4375 18.125 11.4375 18.125 11 21 C8.48650576 20.61823342 7.25067368 20.25496173 5.44433594 18.41772461 C4.96254883 17.75264893 4.48076172 17.08757324 3.984375 16.40234375 C3.45585938 15.68369141 2.92734375 14.96503906 2.3828125 14.22460938 C1.84398438 13.46986328 1.30515625 12.71511719 0.75 11.9375 C0.19570312 11.17888672 -0.35859375 10.42027344 -0.9296875 9.63867188 C-2.29607305 7.76578134 -3.65222962 5.88630798 -5 4 C-4.67 3.34 -4.34 2.68 -4 2 C-2.515 2.99 -2.515 2.99 -1 4 C-0.67 3.34 -0.34 2.68 0 2 C-0.99 1.67 -1.98 1.34 -3 1 C-2.01 0.67 -1.02 0.34 0 0 Z " fill="#A999F3" transform="translate(119,31)"/>
<path d="M0 0 C2.23375255 1.45655884 3.71913429 2.77420609 4.91796875 5.171875 C2.93796875 8.141875 2.93796875 8.141875 0.91796875 11.171875 C-0.51291653 8.31010443 0.31805178 6.23811727 0.91796875 3.171875 C-4.0724043 0.67668847 -9.08085098 0.22413386 -14.45703125 1.921875 C-16.53858044 3.52306668 -17.29293612 4.66111775 -18.08203125 7.171875 C-17.81943342 9.65238722 -17.81943342 9.65238722 -17.08203125 12.171875 C-16.58203125 14.671875 -16.58203125 14.671875 -16.08203125 17.171875 C-19.08203125 18.171875 -19.08203125 18.171875 -21.26953125 17.234375 C-22.16671875 16.7084375 -22.16671875 16.7084375 -23.08203125 16.171875 C-23.55273069 11.46488059 -23.93765996 7.56180121 -20.83203125 3.734375 C-15.1698503 -1.54174816 -7.37874024 -2.93488355 0 0 Z " fill="#A598E8" transform="translate(228.08203125,3.828125)"/>
<path d="M0 0 C1.32 0 2.64 0 4 0 C4.06058594 1.25296875 4.12117188 2.5059375 4.18359375 3.796875 C4.26802256 5.44792724 4.35266939 7.09896835 4.4375 8.75 C4.47681641 9.575 4.51613281 10.4 4.55664062 11.25 C4.59853516 12.04921875 4.64042969 12.8484375 4.68359375 13.671875 C4.72025146 14.4050293 4.75690918 15.13818359 4.79467773 15.89355469 C5.00114785 18.01177605 5.43132086 19.9519456 6 22 C3.625 21.8125 3.625 21.8125 1 21 C-1.09384651 17.11751173 -1.24258801 13.73196062 -1.1875 9.375 C-1.18105469 8.24835937 -1.17460937 7.12171875 -1.16796875 5.9609375 C-1 3 -1 3 0 0 Z " fill="#A491F2" transform="translate(375,18)"/>
<path d="M0 0 C0 6.93 0 13.86 0 21 C-0.99 20.34 -1.98 19.68 -3 19 C-3 18.34 -3 17.68 -3 17 C-3.66 17 -4.32 17 -5 17 C-6.22485812 14.55028376 -6.16722808 12.85765539 -6.1875 10.125 C-6.20167969 9.26132813 -6.21585938 8.39765625 -6.23046875 7.5078125 C-5.98522656 4.83924491 -5.4364726 3.24795361 -4 1 C-2 0 -2 0 0 0 Z " fill="#AE9FEE" transform="translate(65,5)"/>
<path d="M0 0 C-0.53625 0.2475 -1.0725 0.495 -1.625 0.75 C-7.17048463 3.66867612 -10.91689739 5.86642009 -13 12 C-13.45411763 16.75982553 -13.197728 21.358804 -12 26 C-12.99 26 -13.98 26 -15 26 C-15.66 27.32 -16.32 28.64 -17 30 C-19.02411792 22.66051551 -18.38327311 16.34539628 -15.34765625 9.37109375 C-11.73937789 3.02261559 -7.41517772 -1.7562263 0 0 Z " fill="#B5A7EC" transform="translate(293,6)"/>
<path d="M0 0 C4.03321763 1.21934486 7.54269479 2.55954927 11 5 C11 5.66 11 6.32 11 7 C11.66 7 12.32 7 13 7 C13 7.99 13 8.98 13 10 C4.86337773 9.97008595 -0.01724271 8.60562073 -6 3 C-5.67 2.34 -5.34 1.68 -5 1 C-3.02 1.495 -3.02 1.495 -1 2 C-0.67 1.34 -0.34 0.68 0 0 Z " fill="#A896F0" transform="translate(212,19)"/>
<path d="M0 0 C0.66 0.33 1.32 0.66 2 1 C1.67 7.27 1.34 13.54 1 20 C0.01 20 -0.98 20 -2 20 C-4.02804186 16.62533835 -4.32611113 13.91110976 -4.375 10 C-4.40335937 8.96875 -4.43171875 7.9375 -4.4609375 6.875 C-3.89754386 3.36095153 -2.70192398 2.22134462 0 0 Z " fill="#9784EC" transform="translate(433,5)"/>
<path d="M0 0 C0.33 0 0.66 0 1 0 C1.63594729 12.34177486 2.17327227 24.63991137 2 37 C3.485 36.505 3.485 36.505 5 36 C4.67 36.99 4.34 37.98 4 39 C4.99 39.33 5.98 39.66 7 40 C7 40.66 7 41.32 7 42 C3.7 42 0.4 42 -3 42 C-3 41.34 -3 40.68 -3 40 C-2.01 39.505 -2.01 39.505 -1 39 C-0.67 26.13 -0.34 13.26 0 0 Z " fill="#C8BDF4" transform="translate(143,10)"/>
<path d="M0 0 C4.29 0 8.58 0 13 0 C12.18668213 0.6808667 11.37336426 1.3617334 10.53540039 2.06323242 C7.4193505 5.67256937 7.39608455 7.28785181 7.43359375 11.98828125 C7.42514183 12.98132515 7.42514183 12.98132515 7.41651917 13.99443054 C7.40013537 16.10118253 7.41552778 18.20582327 7.4375 20.3125 C7.57306662 37.32512897 7.57306662 37.32512897 3 44 C1.06088215 45.65312105 -0.74431675 46.76962732 -3 48 C-3 47.34 -3 46.68 -3 46 C-3.66 45.67 -4.32 45.34 -5 45 C-4.071875 44.5875 -3.14375 44.175 -2.1875 43.75 C2.02190315 41.43895513 3.49900577 39.50298268 5 35 C5.1529647 32.48945095 5.25695178 30.00111475 5.31640625 27.48828125 C5.33718735 26.76005661 5.35796844 26.03183197 5.37937927 25.28153992 C5.44468746 22.95862125 5.50367237 20.63559094 5.5625 18.3125 C5.60570305 16.73631665 5.64931792 15.16014452 5.69335938 13.58398438 C5.8003496 9.72277025 5.90166961 5.86144397 6 2 C4.68 2 3.36 2 2 2 C1.34 1.34 0.68 0.68 0 0 Z " fill="#D2CDE4" transform="translate(188,3)"/>
<path d="M0 0 C3.71660861 0.5425115 5.09052235 1.84067381 7.3125 4.8125 C8.11107422 5.84310547 8.11107422 5.84310547 8.92578125 6.89453125 C10 9 10 9 9.66796875 11.26171875 C9.44753906 11.83535156 9.22710937 12.40898438 9 13 C5.95281822 12.66142425 4.2252397 12.16892978 1.75 10.3125 C-0.37812753 7.50033148 -0.77225595 5.49207549 -1 2 C-0.67 1.34 -0.34 0.68 0 0 Z " fill="#A493EF" transform="translate(278,32)"/>
<path d="M0 0 C0.66 0 1.32 0 2 0 C2 13.2 2 26.4 2 40 C1.01 40.495 1.01 40.495 0 41 C-0.1674126 35.48259702 -0.32799286 29.96505413 -0.48217773 24.44726562 C-0.53562556 22.56928117 -0.59095705 20.69134937 -0.64819336 18.81347656 C-0.7300268 16.11795404 -0.80513683 13.42231625 -0.87890625 10.7265625 C-0.90594131 9.88380768 -0.93297638 9.04105286 -0.96083069 8.17276001 C-1.11387171 2.22774341 -1.11387171 2.22774341 0 0 Z " fill="#B6AAEF" transform="translate(147,5)"/>
<path d="M0 0 C0.33 0 0.66 0 1 0 C1.33 12.21 1.66 24.42 2 37 C2.99 37 3.98 37 5 37 C4.67 38.32 4.34 39.64 4 41 C5.32 41.66 6.64 42.32 8 43 C8 43.33 8 43.66 8 44 C4.04 44 0.08 44 -4 44 C-4 43.34 -4 42.68 -4 42 C-3.01 41.34 -2.02 40.68 -1 40 C-0.66238965 36.95559724 -0.51082557 34.1051876 -0.48828125 31.0546875 C-0.47033005 30.1696756 -0.45237885 29.2846637 -0.43388367 28.37283325 C-0.37961015 25.54027096 -0.34583081 22.70787874 -0.3125 19.875 C-0.27934192 17.95700749 -0.24485369 16.03903747 -0.20898438 14.12109375 C-0.12387407 9.41418494 -0.05714463 4.70732806 0 0 Z " fill="#B1A3EE" transform="translate(334,8)"/>
<path d="M0 0 C0.33 0 0.66 0 1 0 C1.33 9.9 1.66 19.8 2 30 C1.01 29.67 0.02 29.34 -1 29 C-2.3300103 20.02243049 -2.08788039 11.05168034 -2 2 C-1.34 2 -0.68 2 0 2 C0 1.34 0 0.68 0 0 Z " fill="#9784EF" transform="translate(164,12)"/>
<path d="M0 0 C0.99 0 1.98 0 3 0 C3.33 1.65 3.66 3.3 4 5 C3.34 4.67 2.68 4.34 2 4 C1.67 15.55 1.34 27.1 1 39 C2.65 39 4.3 39 6 39 C6 39.66 6 40.32 6 41 C2.04 41 -1.92 41 -6 41 C-6 40.34 -6 39.68 -6 39 C-5.360625 38.71125 -4.72125 38.4225 -4.0625 38.125 C-1.84793921 37.17176549 -1.84793921 37.17176549 -1 35 C-0.84339117 32.37619687 -0.7417092 29.77475148 -0.68359375 27.1484375 C-0.66281265 26.37440582 -0.64203156 25.60037415 -0.62062073 24.80288696 C-0.55516552 22.32701608 -0.49625913 19.85103798 -0.4375 17.375 C-0.39431093 15.69790552 -0.35069652 14.02082193 -0.30664062 12.34375 C-0.19948829 8.22927692 -0.09820955 4.11469586 0 0 Z " fill="#D7D2EB" transform="translate(97,11)"/>
<path d="M0 0 C3.63 0 7.26 0 11 0 C10.01 1.485 10.01 1.485 9 3 C8.54084493 5.96842658 8.54084493 5.96842658 8.375 9.1875 C8.30023438 10.27417969 8.22546875 11.36085938 8.1484375 12.48046875 C8.09945312 13.31191406 8.05046875 14.14335938 8 15 C6.35 14.67 4.7 14.34 3 14 C2.94583812 12.39620659 2.90713362 10.79188594 2.875 9.1875 C2.85179687 8.29417969 2.82859375 7.40085937 2.8046875 6.48046875 C3 4 3 4 5 1 C3.35 1 1.7 1 0 1 C0 0.67 0 0.34 0 0 Z " fill="#AEA0ED" transform="translate(40,29)"/>
<path d="M0 0 C4.29 0 8.58 0 13 0 C13 0.66 13 1.32 13 2 C12.360625 2.28875 11.72125 2.5775 11.0625 2.875 C8.84793921 3.82823451 8.84793921 3.82823451 8 6 C7.84876169 7.5195764 7.75118307 9.04472502 7.68359375 10.5703125 C7.64169922 11.46621094 7.59980469 12.36210937 7.55664062 13.28515625 C7.51732422 14.22230469 7.47800781 15.15945312 7.4375 16.125 C7.39431641 17.06988281 7.35113281 18.01476562 7.30664062 18.98828125 C7.20040928 21.32537092 7.09836824 23.6625683 7 26 C6.34 24.68 5.68 23.36 5 22 C2.69 22 0.38 22 -2 22 C-2.66 23.98 -3.32 25.96 -4 28 C-4.99 27.01 -5.98 26.02 -7 25 C-3.70515971 20.24078624 -3.70515971 20.24078624 -0.4375 19.125 C2 19 2 19 5 20 C5.495 11.09 5.495 11.09 6 2 C5.01 2 4.02 2 3 2 C2.01 1.67 1.02 1.34 0 1 C0 0.67 0 0.34 0 0 Z " fill="#DAD8E8" transform="translate(123,3)"/>
<path d="M0 0 C0.66 0.33 1.32 0.66 2 1 C0.87548273 3.9719385 -0.22293791 6.33440687 -2 9 C-2.825 9.309375 -3.65 9.61875 -4.5 9.9375 C-7.14520215 10.77763578 -7.14520215 10.77763578 -8.3125 13.125 C-8.539375 13.74375 -8.76625 14.3625 -9 15 C-11 12 -11 12 -11 8 C-10.34 8 -9.68 8 -9 8 C-8.67 7.01 -8.34 6.02 -8 5 C-6.22265625 3.578125 -6.22265625 3.578125 -4.0625 2.25 C-3.35222656 1.80140625 -2.64195313 1.3528125 -1.91015625 0.890625 C-1.27980469 0.59671875 -0.64945313 0.3028125 0 0 Z " fill="#9D8CE8" transform="translate(15,7)"/>
<path d="M0 0 C0.99 0 1.98 0 3 0 C3 5.61 3 11.22 3 17 C1.68 17 0.36 17 -1 17 C-1.02684679 14.35409986 -1.04676357 11.70846904 -1.0625 9.0625 C-1.07087891 8.30775391 -1.07925781 7.55300781 -1.08789062 6.77539062 C-1.09652441 4.85005687 -1.05224333 2.92464419 -1 1 C-0.67 0.67 -0.34 0.34 0 0 Z " fill="#9A88EB" transform="translate(61,29)"/>
<path d="M0 0 C2.40045432 0.96018173 3.73962654 1.58662358 5.13671875 3.8046875 C6.62863706 7.5986155 6.06975327 11.12883037 5 15 C3.53266485 17.36993934 1.99061337 19.00938663 0 21 C6.93 21.495 6.93 21.495 14 22 C12 24 12 24 9.93701172 24.13525391 C9.10959473 24.08288574 8.28217773 24.03051758 7.4296875 23.9765625 C6.53378906 23.925 5.63789063 23.8734375 4.71484375 23.8203125 C3.77769531 23.75585938 2.84054687 23.69140625 1.875 23.625 C0.93011719 23.56828125 -0.01476562 23.5115625 -0.98828125 23.453125 C-3.32626481 23.31142903 -5.66320944 23.16000217 -8 23 C-6 21 -6 21 -3.0625 19.6875 C0.42169652 17.76763661 1.50482108 16.65488182 3 13 C3.57373919 7.74072406 2.65790964 4.54059563 0 0 Z " fill="#DCD8EC" transform="translate(407,7)"/>
<path d="M0 0 C-0.11341637 2.31309705 -0.24103807 4.62550185 -0.375 6.9375 C-0.44460938 8.22527344 -0.51421875 9.51304688 -0.5859375 10.83984375 C-0.72257812 11.88269531 -0.85921875 12.92554688 -1 14 C-1.99 14.495 -1.99 14.495 -3 15 C-3.99 14.34 -4.98 13.68 -6 13 C-6.43359375 10.72265625 -6.43359375 10.72265625 -6.4375 8.0625 C-6.45683594 7.18722656 -6.47617187 6.31195313 -6.49609375 5.41015625 C-6 3 -6 3 -4.09765625 1.18359375 C-2 0 -2 0 0 0 Z " fill="#B6A9EF" transform="translate(419,30)"/>
<path d="M0 0 C9.24 0 18.48 0 28 0 C28.66 1.65 29.32 3.3 30 5 C28.824375 4.67 27.64875 4.34 26.4375 4 C19.70414398 2.46772988 12.86082894 2.83729259 6 3 C6 2.34 6 1.68 6 1 C4.02 1 2.04 1 0 1 C0 0.67 0 0.34 0 0 Z " fill="#D2CDEB" transform="translate(242,3)"/>
<path d="M0 0 C0.66 0.33 1.32 0.66 2 1 C1.67 2.32 1.34 3.64 1 5 C5.62536355 8.77332289 7.85710325 10.29299344 13.96875 10.2265625 C16.86294544 9.90374839 18.68861521 8.7170287 21 7 C21.99 6.34 22.98 5.68 24 5 C24.33 5.99 24.66 6.98 25 8 C19.6934621 11.85930029 15.50613577 12.6621272 8.95703125 12.47265625 C4.52919495 11.76490434 1.42155525 9.81775138 -2 7 C-1.125 2.25 -1.125 2.25 0 0 Z " fill="#CDC8E3" transform="translate(208,40)"/>
<path d="M0 0 C3.19999014 1.26205219 5.42518973 2.85037946 7 6 C5.02 8.97 5.02 8.97 3 12 C1.56911472 9.13822943 2.40008303 7.06624227 3 4 C-1.95150708 1.52424646 -6.98112591 1.0209057 -12.3125 2.75 C-14.33611319 4.24897273 -15.60859295 5.91288943 -17 8 C-17 7.34 -17 6.68 -17 6 C-17.66 5.67 -18.32 5.34 -19 5 C-12.58018877 -0.23721443 -8.27981029 -0.80962943 0 0 Z " fill="#D3CEE7" transform="translate(226,3)"/>
<path d="M0 0 C0.33 0.99 0.66 1.98 1 3 C0.01 4.485 0.01 4.485 -1 6 C-3.15478516 6.34057617 -3.15478516 6.34057617 -5.7890625 6.29296875 C-6.73007812 6.28330078 -7.67109375 6.27363281 -8.640625 6.26367188 C-9.62546875 6.23853516 -10.6103125 6.21339844 -11.625 6.1875 C-13.11386719 6.16719727 -13.11386719 6.16719727 -14.6328125 6.14648438 C-17.08908072 6.11105743 -19.54427285 6.06166196 -22 6 C-22 5.34 -22 4.68 -22 4 C-20.49759766 3.94392578 -20.49759766 3.94392578 -18.96484375 3.88671875 C-9.11600537 3.48489051 -9.11600537 3.48489051 0 0 Z " fill="#E9E4FC" transform="translate(456,46)"/>
<path d="M0 0 C3 4 6 8 9 12 C3.36139301 11.59724236 0.92653154 9.83521686 -3 6 C-3.33 5.01 -3.66 4.02 -4 3 C-2.68 2.67 -1.36 2.34 0 2 C0 1.34 0 0.68 0 0 Z " fill="#B6A9EB" transform="translate(12,38)"/>
<path d="M0 0 C0.33 0.66 0.66 1.32 1 2 C0.03114628 3.68496298 -0.96986723 5.35178756 -2 7 C-2 7.66 -2 8.32 -2 9 C-0.02 9.99 1.96 10.98 4 12 C3.34 12.66 2.68 13.32 2 14 C0.68 14 -0.64 14 -2 14 C-2 13.01 -2 12.02 -2 11 C-2.66 11 -3.32 11 -4 11 C-4 10.34 -4 9.68 -4 9 C-4.66 8.67 -5.32 8.34 -6 8 C-5.34 8 -4.68 8 -4 8 C-3.71125 7.236875 -3.4225 6.47375 -3.125 5.6875 C-2 3 -2 3 0 0 Z M-10 13 C-7.36 13.33 -4.72 13.66 -2 14 C-1.67 14.99 -1.34 15.98 -1 17 C-3.31 16.34 -5.62 15.68 -8 15 C-8.33 15.99 -8.66 16.98 -9 18 C-10 14.125 -10 14.125 -10 13 Z " fill="#C8BEEF" transform="translate(227,15)"/>
<path d="M0 0 C0.33 0 0.66 0 1 0 C1.33 6.27 1.66 12.54 2 19 C3.98 19.33 5.96 19.66 8 20 C8 20.33 8 20.66 8 21 C5.69 21.33 3.38 21.66 1 22 C1 27.28 1 32.56 1 38 C0.67 38 0.34 38 0 38 C-0.07347656 36.33710937 -0.07347656 36.33710937 -0.1484375 34.640625 C-0.22349215 33.17705935 -0.29903881 31.71351888 -0.375 30.25 C-0.4059375 29.52039063 -0.436875 28.79078125 -0.46875 28.0390625 C-0.6748494 24.26057344 -0.91512843 21.22053332 -3 18 C-2.34 18 -1.68 18 -1 18 C-0.505 9.09 -0.505 9.09 0 0 Z " fill="#E4DCF6" transform="translate(250,6)"/>
<path d="M0 0 C6.30818278 -0.35706695 6.30818278 -0.35706695 8.9375 1 C10.67278693 4.26642246 10.17982715 7.34351452 10 11 C4.21538462 6.56923077 4.21538462 6.56923077 3.125 3.6875 C3.063125 2.8521875 3.063125 2.8521875 3 2 C2.01 2 1.02 2 0 2 C0 1.34 0 0.68 0 0 Z " fill="#9D89F2" transform="translate(311,10)"/>
<path d="M0 0 C7.92 0 15.84 0 24 0 C22 2 22 2 18.9609375 2.1953125 C17.77757812 2.17210937 16.59421875 2.14890625 15.375 2.125 C14.18648438 2.10695313 12.99796875 2.08890625 11.7734375 2.0703125 C10.85820312 2.04710937 9.94296875 2.02390625 9 2 C8.67 2.66 8.34 3.32 8 4 C7.34 4 6.68 4 6 4 C5.01 4.495 5.01 4.495 4 5 C4 4.34 4 3.68 4 3 C2.68 2.01 1.36 1.02 0 0 Z " fill="#E5E2F0" transform="translate(331,3)"/>
<path d="M0 0 C9.24 0 18.48 0 28 0 C27.67 0.99 27.34 1.98 27 3 C27 2.34 27 1.68 27 1 C26.39526855 1.07105957 25.79053711 1.14211914 25.16748047 1.21533203 C22.40468843 1.53218297 19.64007293 1.82874219 16.875 2.125 C15.92367188 2.23714844 14.97234375 2.34929688 13.9921875 2.46484375 C8.79561938 3.00615293 4.89301535 3.22409789 0 1 C0 0.67 0 0.34 0 0 Z " fill="#E4E0F4" transform="translate(426,3)"/>
<path d="M0 0 C-0.875 3.875 -0.875 3.875 -2 5 C-4.86267567 5.07325168 -7.700719 5.09238205 -10.5625 5.0625 C-11.36880859 5.05798828 -12.17511719 5.05347656 -13.00585938 5.04882812 C-15.00393756 5.03700518 -17.00197783 5.01906914 -19 5 C-18.67 4.34 -18.34 3.68 -18 3 C-15.7031093 2.55572152 -13.3850754 2.2180954 -11.0625 1.9375 C-7.39635263 1.48622448 -3.53284257 0 0 0 Z " fill="#E3DDF9" transform="translate(87,47)"/>
<path d="M0 0 C3.39325408 0.98969911 4.25957561 1.87760244 6 4.875 C2.78548731 6.48225635 -0.43612536 5.93248185 -4 5.875 C-4.66 4.555 -5.32 3.235 -6 1.875 C-3 -0.125 -3 -0.125 0 0 Z " fill="#A997F2" transform="translate(311,5.125)"/>
<path d="M0 0 C-0.99 0.495 -0.99 0.495 -2 1 C-2 1.66 -2 2.32 -2 3 C-5 4 -5 4 -8 3 C-8.33 4.32 -8.66 5.64 -9 7 C-9 5.35 -9 3.7 -9 2 C-12.16717283 3.58358642 -13.73268318 4.45263699 -15.3125 7.6875 C-15.539375 8.450625 -15.76625 9.21375 -16 10 C-16.8125 8.3125 -16.8125 8.3125 -17 6 C-12.6446061 0.28354551 -7.00608601 -2.12305637 0 0 Z " fill="#DDD8F0" transform="translate(356,28)"/>
<path d="M0 0 C1.76923828 0.01353516 1.76923828 0.01353516 3.57421875 0.02734375 C4.47785156 0.03894531 5.38148438 0.05054688 6.3125 0.0625 C5.9825 0.7225 5.6525 1.3825 5.3125 2.0625 C4.73242188 2.02769531 4.15234375 1.99289063 3.5546875 1.95703125 C-1.77339555 1.77239471 -4.97883275 2.3419367 -9.6875 5.0625 C-12.9375 6.3125 -12.9375 6.3125 -15.6875 7.0625 C-16.3475 6.7325 -17.0075 6.4025 -17.6875 6.0625 C-16.41918307 5.24607746 -15.14774069 4.43450895 -13.875 3.625 C-13.16730469 3.17253906 -12.45960938 2.72007812 -11.73046875 2.25390625 C-7.7598316 -0.06166609 -4.50873918 -0.04464098 0 0 Z " fill="#D4D0E4" transform="translate(398.6875,2.9375)"/>
<path d="M0 0 C1.25425781 0.01804688 2.50851563 0.03609375 3.80078125 0.0546875 C5.22970703 0.08949219 5.22970703 0.08949219 6.6875 0.125 C6.0275 0.785 5.3675 1.445 4.6875 2.125 C2.71985619 2.09220594 0.75213736 2.05678101 -1.21484375 1.99609375 C-4.33493637 2.18783129 -6.62018249 3.62231116 -9.3125 5.125 C-10.3025 5.125 -11.2925 5.125 -12.3125 5.125 C-13.65231486 5.4312434 -14.98761887 5.75951555 -16.3125 6.125 C-11.38586706 0.65096339 -7.25442435 -0.13559672 0 0 Z " fill="#D1CCEA" transform="translate(28.3125,2.875)"/>
<path d="M0 0 C0.33 0 0.66 0 1 0 C1.44539877 8.7595092 1.44539877 8.7595092 -2 13 C-2.66 13 -3.32 13 -4 13 C-4.33 9.37 -4.66 5.74 -5 2 C-3.02 2.99 -3.02 2.99 -1 4 C-0.67 2.68 -0.34 1.36 0 0 Z " fill="#B9ADEC" transform="translate(236,34)"/>
<path d="M0 0 C0.66 0.33 1.32 0.66 2 1 C2 1.66 2 2.32 2 3 C1.34 3 0.68 3 0 3 C0.14166357 4.91697937 0.28849584 6.83357723 0.4375 8.75 C0.51871094 9.81734375 0.59992188 10.8846875 0.68359375 11.984375 C0.94090773 14.43679962 1.31812218 16.63921291 2 19 C1.34 19 0.68 19 0 19 C-2.07128547 15.58895449 -2.26961411 12.89464724 -2.25 8.9375 C-2.25515625 7.89464844 -2.2603125 6.85179687 -2.265625 5.77734375 C-2 3 -2 3 0 0 Z " fill="#B6AAED" transform="translate(431,6)"/>
<path d="M0 0 C6.52307692 0.49230769 6.52307692 0.49230769 8.9375 3.0625 C9.288125 3.701875 9.63875 4.34125 10 5 C8.68 4.67 7.36 4.34 6 4 C6 5.98 6 7.96 6 10 C5.34 9.01 4.68 8.02 4 7 C3.29875 6.154375 2.5975 5.30875 1.875 4.4375 C0 2 0 2 0 0 Z " fill="#C0B4F1" transform="translate(353,4)"/>
<path d="M0 0 C0.33 0 0.66 0 1 0 C1.02578125 1.19238281 1.0515625 2.38476562 1.078125 3.61328125 C1.13440439 5.1797242 1.19175177 6.74612903 1.25 8.3125 C1.26417969 9.09818359 1.27835938 9.88386719 1.29296875 10.69335938 C1.38442829 15.37763935 1.38442829 15.37763935 4.046875 19.04296875 C4.69140625 19.35878906 5.3359375 19.67460938 6 20 C3.03 20 0.06 20 -3 20 C-3 19.34 -3 18.68 -3 18 C-2.34 17.67 -1.68 17.34 -1 17 C-0.67 11.39 -0.34 5.78 0 0 Z " fill="#D6D0F3" transform="translate(245,32)"/>
<path d="M0 0 C2.64 0 5.28 0 8 0 C7.56615452 7.03128878 6.25678003 13.329015 4 20 C2.55284273 16.12813552 3.4558082 13.1767672 4.4375 9.25 C4.72496094 8.07953125 5.01242187 6.9090625 5.30859375 5.703125 C5.65083984 4.36507813 5.65083984 4.36507813 6 3 C4.02 2.34 2.04 1.68 0 1 C0 0.67 0 0.34 0 0 Z " fill="#CDC8E4" transform="translate(445,4)"/>
<path d="M0 0 C0.99 0 1.98 0 3 0 C3.125 3.375 3.125 3.375 3 7 C0.64046906 9.35953094 -0.77895617 9.49141413 -4 10 C-4 9.34 -4 8.68 -4 8 C-3.34 8 -2.68 8 -2 8 C-1.34 5.36 -0.68 2.72 0 0 Z " fill="#9E8CEF" transform="translate(361,16)"/>
<path d="M0 0 C1.32 1.32 2.64 2.64 4 4 C3.67 4.66 3.34 5.32 3 6 C2.34 6 1.68 6 1 6 C0.67 6.66 0.34 7.32 0 8 C0.66 8.33 1.32 8.66 2 9 C1.01 9 0.02 9 -1 9 C-3.1875 6.5 -3.1875 6.5 -5 4 C-4.67 3.34 -4.34 2.68 -4 2 C-2.515 2.99 -2.515 2.99 -1 4 C-0.67 3.34 -0.34 2.68 0 2 C-0.99 1.67 -1.98 1.34 -3 1 C-2.01 0.67 -1.02 0.34 0 0 Z " fill="#BAACF1" transform="translate(119,31)"/>
<path d="M0 0 C0.33 0 0.66 0 1 0 C1.22126178 2.45779976 1.42750395 4.91527648 1.625 7.375 C1.68945312 8.07367188 1.75390625 8.77234375 1.8203125 9.4921875 C1.96119739 11.32369111 1.98761659 13.16312748 2 15 C1.34 15.66 0.68 16.32 0 17 C-1.49341703 14.01316593 -1.13175178 11.25600226 -1.125 7.9375 C-1.12757813 6.66777344 -1.13015625 5.39804687 -1.1328125 4.08984375 C-1 1 -1 1 0 0 Z " fill="#9E88F7" transform="translate(248,32)"/>
<path d="M0 0 C1.10794922 0.34417969 1.10794922 0.34417969 2.23828125 0.6953125 C1.70203125 0.9428125 1.16578125 1.1903125 0.61328125 1.4453125 C-5.0321526 4.41659347 -8.29004425 6.6534415 -10.76171875 12.6953125 C-11.42171875 12.3653125 -12.08171875 12.0353125 -12.76171875 11.6953125 C-11.57727844 6.80949622 -8.48343105 4.23879118 -4.9296875 0.953125 C-2.76171875 -0.3046875 -2.76171875 -0.3046875 0 0 Z " fill="#DAD5E8" transform="translate(290.76171875,5.3046875)"/>
<path d="M0 0 C2.93200474 2.85276137 5.64315404 5.65079784 8 9 C3.2482602 8.56802365 1.07999946 7.67230705 -2 4 C-1.01 4 -0.02 4 1 4 C0.67 2.68 0.34 1.36 0 0 Z " fill="#BCB1E9" transform="translate(383,41)"/>
<path d="M0 0 C0.556875 0.28875 1.11375 0.5775 1.6875 0.875 C4.08494645 2.0413253 6.51596939 3.0339881 9 4 C4.90909091 6.72727273 4.90909091 6.72727273 2 7 C0.1875 5.8125 0.1875 5.8125 -1 4 C-0.6875 1.8125 -0.6875 1.8125 0 0 Z " fill="#B2A4EF" transform="translate(168,44)"/>
<path d="M0 0 C2.39281866 0.95712746 3.73905509 1.59121599 5.14453125 3.79296875 C6.12575742 6.32444265 6.12565587 7.88025186 5.8125 10.5625 C5.73644531 11.32691406 5.66039062 12.09132813 5.58203125 12.87890625 C4.90244442 15.35552133 3.93887729 16.36423561 2 18 C2.165 17.319375 2.33 16.63875 2.5 15.9375 C3.56598882 9.6748157 3.24053758 5.53591836 0 0 Z " fill="#E4E0F1" transform="translate(407,7)"/>
<path d="M0 0 C1.98 0 3.96 0 6 0 C7.60355101 3.50776784 8.22036864 6.14354879 8 10 C5.63035638 7.84577853 4.42019486 5.84038972 3 3 C1.4587688 1.29078411 1.4587688 1.29078411 0 0 Z " fill="#9E8CEA" transform="translate(121,41)"/>
<path d="M0 0 C1.32 0.33 2.64 0.66 4 1 C4 3.97 4 6.94 4 10 C2.68 9.34 1.36 8.68 0 8 C0 5.36 0 2.72 0 0 Z " fill="#9C8AE7" transform="translate(413,35)"/>
<path d="M0 0 C0 0.66 0 1.32 0 2 C0.66 2 1.32 2 2 2 C2 2.99 2 3.98 2 5 C-0.875 5.125 -0.875 5.125 -4 5 C-4.66 4.34 -5.32 3.68 -6 3 C-3.375 0 -3.375 0 0 0 Z " fill="#9883F3" transform="translate(223,24)"/>
<path d="M0 0 C0.66 0.33 1.32 0.66 2 1 C2 3.97 2 6.94 2 10 C1.67 10 1.34 10 1 10 C0.67 8.35 0.34 6.7 0 5 C-0.33 8.3 -0.66 11.6 -1 15 C-1.33 15 -1.66 15 -2 15 C-2.05406122 13.06280622 -2.09282025 11.12518079 -2.125 9.1875 C-2.14820313 8.10855469 -2.17140625 7.02960937 -2.1953125 5.91796875 C-2 3 -2 3 0 0 Z " fill="#B8AAF6" transform="translate(247,6)"/>
<path d="M0 0 C0.66 0.33 1.32 0.66 2 1 C0.8141763 4.37503669 -0.27573689 6.64722731 -3 9 C-3.66 7.02 -4.32 5.04 -5 3 C-2.625 1.4375 -2.625 1.4375 0 0 Z " fill="#B0A2E9" transform="translate(15,7)"/>
<path d="M0 0 C0.66 0 1.32 0 2 0 C2.33 0.66 2.66 1.32 3 2 C3.99 1.67 4.98 1.34 6 1 C6 1.66 6 2.32 6 3 C7.32 3.33 8.64 3.66 10 4 C10 4.33 10 4.66 10 5 C6.7 5 3.4 5 0 5 C0 3.35 0 1.7 0 0 Z " fill="#E2DDF5" transform="translate(358,47)"/>
<path d="M0 0 C3 1 3 1 4 3 C4.53625 3.45375 5.0725 3.9075 5.625 4.375 C6.07875 4.91125 6.5325 5.4475 7 6 C6.6875 8.1875 6.6875 8.1875 6 10 C2.46413986 6.82679218 0.41421969 4.83256305 0 0 Z " fill="#9883ED" transform="translate(112,26)"/>
<path d="M0 0 C1.98 0.66 3.96 1.32 6 2 C4.125 3.0625 4.125 3.0625 2 4 C1.34 3.67 0.68 3.34 0 3 C-0.33 3.99 -0.66 4.98 -1 6 C-2.32 5.34 -3.64 4.68 -5 4 C-5 3.01 -5 2.02 -5 1 C-3.02 1.495 -3.02 1.495 -1 2 C-0.67 1.34 -0.34 0.68 0 0 Z " fill="#B8ABF1" transform="translate(212,19)"/>
<path d="M0 0 C0.33 0.66 0.66 1.32 1 2 C1.99 1.67 2.98 1.34 4 1 C6.6875 1.9375 6.6875 1.9375 9 3 C9 3.33 9 3.66 9 4 C5.04 4 1.08 4 -3 4 C-3 3.34 -3 2.68 -3 2 C-2.01 1.34 -1.02 0.68 0 0 Z " fill="#E4DFF4" transform="translate(333,48)"/>
<path d="M0 0 C0.33 0.99 0.66 1.98 1 3 C0.67 3.66 0.34 4.32 0 5 C-4.29 5 -8.58 5 -13 5 C-13 4.67 -13 4.34 -13 4 C-12.14535156 3.79503906 -11.29070312 3.59007812 -10.41015625 3.37890625 C-9.30542969 3.10949219 -8.20070313 2.84007812 -7.0625 2.5625 C-5.40927734 2.16224609 -5.40927734 2.16224609 -3.72265625 1.75390625 C-1.10578746 1.27004275 -1.10578746 1.27004275 0 0 Z " fill="#BCB5DF" transform="translate(456,46)"/>
<path d="M0 0 C0.99 0.33 1.98 0.66 3 1 C3 1.99 3 2.98 3 4 C3.66 4.33 4.32 4.66 5 5 C5 3.35 5 1.7 5 0 C5.66 0.33 6.32 0.66 7 1 C7 3.31 7 5.62 7 8 C4.24542282 7.62005832 3.17979426 7.1926367 1.25 5.125 C0 3 0 3 0 0 Z " fill="#BCB1ED" transform="translate(123,44)"/>
<path d="M0 0 C2.97 0.495 2.97 0.495 6 1 C6.33 2.65 6.66 4.3 7 6 C4.625 5.8125 4.625 5.8125 2 5 C0.6875 2.4375 0.6875 2.4375 0 0 Z " fill="#A998ED" transform="translate(377,39)"/>
<path d="M0 0 C0.66 0 1.32 0 2 0 C2 2.97 2 5.94 2 9 C1.01 9.33 0.02 9.66 -1 10 C-1.125 2.25 -1.125 2.25 0 0 Z " fill="#AFA0EF" transform="translate(323,23)"/>
<path d="M0 0 C-2.92824652 0.97608217 -4.95613276 1.08226668 -8 1 C-8.66 2.98 -9.32 4.96 -10 7 C-10.99 6.01 -11.98 5.02 -13 4 C-8.70249739 -1.77940007 -6.77897348 -2.56094554 0 0 Z " fill="#E3DEF2" transform="translate(129,24)"/>
<path d="M0 0 C3.96 0 7.92 0 12 0 C12 0.66 12 1.32 12 2 C11.01 2.33 10.02 2.66 9 3 C8.34 2.67 7.68 2.34 7 2 C6.67 3.32 6.34 4.64 6 6 C5.34 6 4.68 6 4 6 C4.66 4.35 5.32 2.7 6 1 C4.02 1 2.04 1 0 1 C0 0.67 0 0.34 0 0 Z " fill="#D9D4EF" transform="translate(140,3)"/>
<path d="M0 0 C0.66 0.66 1.32 1.32 2 2 C0.62184294 3.37215202 -0.77829151 4.72225767 -2.1875 6.0625 C-2.96480469 6.81660156 -3.74210937 7.57070313 -4.54296875 8.34765625 C-7 10 -7 10 -9.80078125 9.74609375 C-10.52652344 9.49988281 -11.25226563 9.25367188 -12 9 C-11.443125 8.731875 -10.88625 8.46375 -10.3125 8.1875 C-5.95981826 5.9523391 -2.72924348 4.16568742 0 0 Z " fill="#D8D5E8" transform="translate(319,40)"/>
<path d="M0 0 C0.99 0.495 0.99 0.495 2 1 C2.4140625 3.50390625 2.4140625 3.50390625 2.625 6.5625 C2.69976562 7.57441406 2.77453125 8.58632813 2.8515625 9.62890625 C2.92503906 10.80259766 2.92503906 10.80259766 3 12 C2.34 12 1.68 12 1 12 C-0.3271261 8.0186217 -0.06915913 4.14954773 0 0 Z " fill="#9682F2" transform="translate(246,10)"/>
<path d="M0 0 C4.29 0 8.58 0 13 0 C11.35 1.65 9.7 3.3 8 5 C7.34 4.67 6.68 4.34 6 4 C7 2 7 2 8 1 C5.69 1.33 3.38 1.66 1 2 C0.67 1.34 0.34 0.68 0 0 Z " fill="#E5E3EF" transform="translate(188,3)"/>
<path d="M0 0 C-0.33 0.66 -0.66 1.32 -1 2 C-4.96 2 -8.92 2 -13 2 C-13 1.34 -13 0.68 -13 0 C-8.38926889 -1.29676812 -4.66159911 -0.71109139 0 0 Z " fill="#EAE8FC" transform="translate(69,50)"/>
<path d="M0 0 C2.5 1.0625 2.5 1.0625 5 3 C5.3125 6.6875 5.3125 6.6875 5 10 C0.07692308 5.69230769 0.07692308 5.69230769 -0.3125 2.1875 C-0.209375 1.465625 -0.10625 0.74375 0 0 Z " fill="#9784EF" transform="translate(231,31)"/>
<path d="M0 0 C-0.6875 2.4375 -0.6875 2.4375 -2 5 C-4.625 5.8125 -4.625 5.8125 -7 6 C-6.6875 4.125 -6.6875 4.125 -6 2 C-3 0 -3 0 0 0 Z " fill="#A899E8" transform="translate(387,8)"/>
<path d="M0 0 C3.96 0 7.92 0 12 0 C12 0.66 12 1.32 12 2 C11.360625 2.12375 10.72125 2.2475 10.0625 2.375 C9.381875 2.58125 8.70125 2.7875 8 3 C7.67 3.66 7.34 4.32 7 5 C6.34 5 5.68 5 5 5 C5.33 4.01 5.66 3.02 6 2 C3.03 1.505 3.03 1.505 0 1 C0 0.67 0 0.34 0 0 Z " fill="#D7D0EC" transform="translate(157,3)"/>
<path d="M0 0 C0 0.66 0 1.32 0 2 C-3.96 2 -7.92 2 -12 2 C-11 0 -11 0 -9.375 -0.6875 C-6.12574921 -1.115033 -3.21226196 -0.55596842 0 0 Z " fill="#EEEAF8" transform="translate(103,50)"/>
<path d="M0 0 C-0.33 1.32 -0.66 2.64 -1 4 C-3.97 4 -6.94 4 -10 4 C-7.25346796 1.25346796 -3.91404908 0 0 0 Z " fill="#B9B1DC" transform="translate(87,47)"/>
<path d="M0 0 C0.33 0 0.66 0 1 0 C1 2.97 1 5.94 1 9 C-0.98 9.99 -0.98 9.99 -3 11 C-2.69217504 9.35328588 -2.37860766 7.70764424 -2.0625 6.0625 C-1.88847656 5.14597656 -1.71445312 4.22945312 -1.53515625 3.28515625 C-1 1 -1 1 0 0 Z " fill="#9E8BE5" transform="translate(338,36)"/>
<path d="M0 0 C0.33 1.32 0.66 2.64 1 4 C1.66 4 2.32 4 3 4 C2.44855089 8.08072342 2.08669204 8.91330796 -1 12 C-0.67 8.04 -0.34 4.08 0 0 Z " fill="#C2B8E5" transform="translate(321,29)"/>
<path d="M0 0 C0.33 0.99 0.66 1.98 1 3 C1.99 3.33 2.98 3.66 4 4 C2 6 2 6 -1.125 6.125 C-2.548125 6.063125 -2.548125 6.063125 -4 6 C-4 4 -4 4 -2 1.875 C-1.34 1.25625 -0.68 0.6375 0 0 Z " fill="#BCB1EC" transform="translate(357,22)"/>
<path d="M0 0 C1.32 0.66 2.64 1.32 4 2 C3.625 3.9375 3.625 3.9375 3 6 C2.01 6.495 2.01 6.495 1 7 C1 6.01 1 5.02 1 4 C0.34 3.67 -0.32 3.34 -1 3 C-0.67 2.01 -0.34 1.02 0 0 Z " fill="#9B89E6" transform="translate(359,43)"/>
<path d="M0 0 C0.33 0 0.66 0 1 0 C1 2.64 1 5.28 1 8 C-0.32 7.67 -1.64 7.34 -3 7 C-2.67 5.35 -2.34 3.7 -2 2 C-1.34 2 -0.68 2 0 2 C0 1.34 0 0.68 0 0 Z " fill="#9784EC" transform="translate(46,36)"/>
<path d="M0 0 C0.66 0 1.32 0 2 0 C3.42944945 2.35438733 4.08661261 3.48032433 3.625 6.25 C3.41875 6.8275 3.2125 7.405 3 8 C1 7 1 7 0.375 5.125 C0 3 0 3 0 0 Z " fill="#AB9BF2" transform="translate(208,14)"/>
<path d="M0 0 C1.26026798 2.52053595 0.91874445 3.8542098 0.5625 6.625 C0.40974609 7.85089844 0.40974609 7.85089844 0.25390625 9.1015625 C0.17011719 9.72804688 0.08632813 10.35453125 0 11 C-2.953125 8.3125 -2.953125 8.3125 -3.375 5.5 C-2.94326323 2.62175489 -2.24197388 1.77489599 0 0 Z " fill="#9787E3" transform="translate(338,5)"/>
<path d="M0 0 C3.96 0 7.92 0 12 0 C11.67 0.66 11.34 1.32 11 2 C10.34 2 9.68 2 9 2 C8.34 2.66 7.68 3.32 7 4 C6.67 3.34 6.34 2.68 6 2 C4.35 2 2.7 2 1 2 C0.67 1.34 0.34 0.68 0 0 Z " fill="#EBE9F7" transform="translate(90,3)"/>
<path d="M0 0 C0.66 0 1.32 0 2 0 C4.125 4.625 4.125 4.625 3 8 C2.01 7.67 1.02 7.34 0 7 C0 4.69 0 2.38 0 0 Z " fill="#9782F3" transform="translate(377,32)"/>
<path d="M0 0 C0.8125 1.6875 0.8125 1.6875 1 4 C-1.4375 6.75 -1.4375 6.75 -4 9 C-3.35455571 5.51460083 -1.89865603 2.97180943 0 0 Z " fill="#9883EE" transform="translate(9,16)"/>
<path d="M0 0 C0.66 0 1.32 0 2 0 C2.33 1.65 2.66 3.3 3 5 C1.68 5 0.36 5 -1 5 C-1.33 5.66 -1.66 6.32 -2 7 C-1.125 1.125 -1.125 1.125 0 0 Z " fill="#AEA1E6" transform="translate(99,4)"/>
<path d="M0 0 C-3.20336822 2.83374881 -5.78087253 3.5205537 -10 4 C-4.75 -1.425 -4.75 -1.425 0 0 Z " fill="#C2B9E9" transform="translate(391,6)"/>
<path d="M0 0 C0 0.66 0 1.32 0 2 C-3.3 2 -6.6 2 -10 2 C-10 1.34 -10 0.68 -10 0 C-6.30458414 -0.95024979 -3.69541586 -0.95024979 0 0 Z " fill="#E7E3F5" transform="translate(150,50)"/>
<path d="M0 0 C0.33 0 0.66 0 1 0 C1.12375 0.969375 1.2475 1.93875 1.375 2.9375 C1.684375 4.4534375 1.684375 4.4534375 2 6 C2.66 6.33 3.32 6.66 4 7 C3.34 8.32 2.68 9.64 2 11 C1.67 10.01 1.34 9.02 1 8 C0.34 7.67 -0.32 7.34 -1 7 C-0.67 4.69 -0.34 2.38 0 0 Z " fill="#CBBFF2" transform="translate(412,37)"/>
<path d="M0 0 C-1.28965176 1.37562854 -2.62689293 2.70766393 -4 4 C-4.66 4 -5.32 4 -6 4 C-6.33 2.68 -6.66 1.36 -7 0 C-3.98968256 -0.93423645 -3.13349732 -1.04449911 0 0 Z " fill="#A38FF2" transform="translate(232,29)"/>
<path d="M0 0 C0 3.59857954 -0.95830515 5.09451118 -3 8 C-3.66 8 -4.32 8 -5 8 C-5 6.68 -5 5.36 -5 4 C-4.34 4 -3.68 4 -3 4 C-2.67 3.01 -2.34 2.02 -2 1 C-1.34 0.67 -0.68 0.34 0 0 Z " fill="#F4EFFD" transform="translate(9,11)"/>
<path d="M0 0 C1.98 0.99 1.98 0.99 4 2 C3.34 2 2.68 2 2 2 C2.33 3.65 2.66 5.3 3 7 C2.01 7 1.02 7 0 7 C0 4.69 0 2.38 0 0 Z " fill="#9885EF" transform="translate(359,8)"/>
<path d="M0 0 C1.65 0 3.3 0 5 0 C5 1.65 5 3.3 5 5 C3.0625 4.1875 3.0625 4.1875 1 3 C0.67 2.01 0.34 1.02 0 0 Z " fill="#B9AEE7" transform="translate(353,4)"/>
<path d="M0 0 C0.99 0.33 1.98 0.66 3 1 C1 3 -1 5 -3 7 C-3 6.34 -3 5.68 -3 5 C-3.66 4.67 -4.32 4.34 -5 4 C-2.6875 1.9375 -2.6875 1.9375 0 0 Z " fill="#C8C1E7" transform="translate(212,4)"/>
<path d="M0 0 C3.3 0.33 6.6 0.66 10 1 C6 3 6 3 3 4 C2.01 2.68 1.02 1.36 0 0 Z " fill="#B5A6F0" transform="translate(294,47)"/>
<path d="M0 0 C0.33 0 0.66 0 1 0 C1.144375 1.093125 1.28875 2.18625 1.4375 3.3125 C1.88288104 6.93122987 1.88288104 6.93122987 3 10 C1.68 10.33 0.36 10.66 -1 11 C-0.67 7.37 -0.34 3.74 0 0 Z " fill="#9985E3" transform="translate(9,30)"/>
<path d="M0 0 C3.63 0 7.26 0 11 0 C9.515 1.485 9.515 1.485 8 3 C7.01 3 6.02 3 5 3 C5 2.34 5 1.68 5 1 C3.35 1 1.7 1 0 1 C0 0.67 0 0.34 0 0 Z " fill="#D6D1E8" transform="translate(40,29)"/>
<path d="M0 0 C0.33 0.66 0.66 1.32 1 2 C0.01 2.99 -0.98 3.98 -2 5 C-1.34 3.35 -0.68 1.7 0 0 Z " fill="#DDDBE8" transform="translate(216,33)"/>
<path d="" fill="#E0E0E5" transform="translate(0,0)"/>
</svg>
